<svg xmlns="http://www.w3.org/2000/svg" viewBox="0 0 192 192">
  <!-- Background with rounded corners (maskable safe zone) -->
  <rect width="192" height="192" rx="28" fill="#2a7878"/>
  <!-- Water -->
  <path d="M18 148 Q38 138 58 148 Q78 158 98 148 Q118 138 138 148 Q158 158 174 148 L174 168 Q158 178 138 168 Q118 158 98 168 Q78 178 58 168 Q38 158 18 168 Z" fill="#1a5050"/>
  <!-- Hull -->
  <path d="M28 138 L34 120 L158 120 L164 138 Z" fill="white"/>
  <!-- Superstructure lower deck -->
  <rect x="50" y="94" width="92" height="26" rx="4" fill="white"/>
  <!-- Superstructure upper deck -->
  <rect x="66" y="74" width="60" height="20" rx="4" fill="#e8f4f4"/>
  <!-- Smokestack -->
  <rect x="87" y="58" width="18" height="20" rx="3" fill="#4aa8a8"/>
  <!-- Smoke puff -->
  <circle cx="96" cy="52" r="7" fill="rgba(255,255,255,0.4)"/>
  <circle cx="104" cy="47" r="5" fill="rgba(255,255,255,0.25)"/>
  <!-- Windows on lower superstructure -->
  <rect x="60"  y="102" width="14" height="10" rx="2" fill="#2a7878"/>
  <rect x="80"  y="102" width="14" height="10" rx="2" fill="#2a7878"/>
  <rect x="100" y="102" width="14" height="10" rx="2" fill="#2a7878"/>
  <rect x="120" y="102" width="14" height="10" rx="2" fill="#2a7878"/>
  <!-- Windows on upper deck -->
  <rect x="75"  y="80" width="12" height="8" rx="2" fill="#2a7878"/>
  <rect x="93"  y="80" width="12" height="8" rx="2" fill="#2a7878"/>
  <rect x="111" y="80" width="12" height="8" rx="2" fill="#2a7878"/>
</svg>
